<svg width="53" height="17" viewBox="0 0 53 17" fill="none" xmlns="http://www.w3.org/2000/svg">
<path d="M0.275027 1.44975V0.575296H6.50897V1.44975H3.8733V8.51439H2.9107V1.44975H0.275027Z" fill="#3E3E3E"/>
<path d="M8.39432 8.51439V3.22166C8.66171 2.76142 9.15829 2.5313 9.88405 2.5313H11.03L11.4884 2.87648V3.33672H9.88405C9.62431 3.33672 9.43331 3.40575 9.31108 3.54383V8.51439H8.39432Z" fill="#3E3E3E"/>
<path d="M15.0901 8.51439C13.9366 8.51439 13.3598 7.93525 13.3598 6.77699C13.3598 5.61873 13.9366 5.0396 15.0901 5.0396H17.1872V4.14213C17.1872 3.60519 16.9198 3.33672 16.3851 3.33672H13.9327V2.87648L14.3911 2.5313H16.3851C17.531 2.5313 18.104 3.1066 18.104 4.25719V8.51439H15.0901ZM14.2765 6.90356C14.2765 7.4405 14.5439 7.70897 15.0787 7.70897H17.1872V5.84501H15.0787C14.5439 5.84501 14.2765 6.11348 14.2765 6.65043V6.90356Z" fill="#3E3E3E"/>
<path d="M20.9573 1.44975V0.391201H21.9199V1.44975H20.9573ZM20.9802 8.51439V2.5313H21.897V8.51439H20.9802Z" fill="#3E3E3E"/>
<path d="M24.776 6.88054V0H25.6927V6.97259C25.6927 7.49419 25.9601 7.77034 26.4949 7.80102V8.60643C25.349 8.60643 24.776 8.03114 24.776 6.88054Z" fill="#3E3E3E"/>
<path d="M28.7956 6.7885V4.25719C28.7956 3.1066 29.3685 2.5313 30.5145 2.5313H32.0042C33.1502 2.5313 33.7231 3.1066 33.7231 4.25719V5.91405H29.7123V6.90356C29.7123 7.4405 29.9797 7.70897 30.5145 7.70897H33.4939V8.16921L33.0356 8.51439H30.5145C29.3685 8.51439 28.7956 7.93909 28.7956 6.7885ZM29.7123 5.10863H32.8064V4.14213C32.8064 3.60519 32.539 3.33672 32.0042 3.33672H30.5145C29.9797 3.33672 29.7123 3.60519 29.7123 4.14213V5.10863Z" fill="#3E3E3E"/>
<path d="M36.5103 8.51439V3.22166C36.7777 2.76142 37.2742 2.5313 38 2.5313H39.146L39.6043 2.87648V3.33672H38C37.7403 3.33672 37.5493 3.40575 37.427 3.54383V8.51439H36.5103Z" fill="#3E3E3E"/>
<path d="M14.5535 9.26802L14.691 9.06091H15.5046L17.7392 16.1255H18.0143L20.2489 9.06091H21.0625L21.2 9.26802L18.7018 17H17.0517L14.5535 9.26802Z" fill="#3E3E3E"/>
<path d="M23.4359 17V11.0169H24.3527V17H23.4359Z" fill="#3E3E3E"/>
<path d="M27.0484 16.6548V16.1946H29.684C30.2188 16.1946 30.4862 15.9261 30.4862 15.3892C30.4862 14.8522 30.257 14.5454 29.7986 14.4687L28.4235 14.2386C27.5067 14.0852 27.0484 13.5789 27.0484 12.7198C27.0484 11.5845 27.6213 11.0169 28.7673 11.0169H30.6695L31.1279 11.3621V11.8223H28.7673C28.2325 11.8223 27.9651 12.0908 27.9651 12.6277C27.9651 13.088 28.1943 13.3565 28.6527 13.4332L30.0278 13.6633C30.9446 13.8167 31.4029 14.3613 31.4029 15.2971C31.4029 16.4324 30.83 17 29.684 17H27.5067L27.0484 16.6548Z" fill="#3E3E3E"/>
<path d="M34.0959 17V11.0169H35.0127V17H34.0959Z" fill="#3E3E3E"/>
<path d="M37.8458 15.2741V12.7428C37.8458 11.5922 38.4188 11.0169 39.5648 11.0169H41.1691C42.315 11.0169 42.888 11.5922 42.888 12.7428V15.2741C42.888 16.4247 42.315 17 41.1691 17H39.5648C38.4188 17 37.8458 16.4247 37.8458 15.2741ZM38.7626 15.3892C38.7626 15.9261 39.03 16.1946 39.5648 16.1946H41.1691C41.7039 16.1946 41.9713 15.9261 41.9713 15.3892V12.6277C41.9713 12.0908 41.7039 11.8223 41.1691 11.8223H39.5648C39.03 11.8223 38.7626 12.0908 38.7626 12.6277V15.3892Z" fill="#3E3E3E"/>
<path d="M45.7183 17V11.0169H48.927C50.0729 11.0169 50.6459 11.5922 50.6459 12.7428V17H49.7291V12.6277C49.7291 12.0908 49.4617 11.8223 48.927 11.8223H46.6351V17H45.7183Z" fill="#3E3E3E"/>
<path d="M0 8.51439H53V9.95263H0V8.51439Z" fill="#3E3E3E"/>
</svg>
