<svg width="34" height="23" viewBox="0 0 34 23" fill="none" xmlns="http://www.w3.org/2000/svg">
<path d="M13.5865 1.26673L13.4478 1.4707L13.5253 1.70486L20.2908 22.157L20.4043 22.5H20.7655H25.2345H25.5957L25.7092 22.157L32.4747 1.70486L32.5522 1.4707L32.4135 1.26673L32.0411 0.7189L31.8923 0.5H31.6276H29.4241H29.0605L28.9485 0.845953L23.0088 19.187H22.9912L17.0515 0.845953L16.9395 0.5H16.5759H14.3724H14.1077L13.9589 0.718901L13.5865 1.26673Z" fill="black" stroke="white"/>
<path d="M0.5 3.31304V3.81304H1H7.4V22V22.5H7.9H10.42H10.92V22V3.81304H31H31.5V3.31304V1V0.5H31H1H0.5V1V3.31304Z" fill="black" stroke="white"/>
</svg>
